<svg version="1.1" id="Layer_1" xmlns="http://www.w3.org/2000/svg" xmlns:xlink="http://www.w3.org/1999/xlink" x="0px" y="0px"
	 width="100%" viewBox="0 0 1118 722" enable-background="new 0 0 1118 722" xml:space="preserve">
<path fill="#FFFFFE" opacity="1.000000" stroke="none" 
	d="
M683.000000,723.000000 
	C455.333344,723.000000 228.166687,723.000000 1.000031,723.000000 
	C1.000020,482.333374 1.000020,241.666718 1.000010,1.000063 
	C373.666626,1.000042 746.333252,1.000042 1119.000000,1.000021 
	C1119.000000,241.666611 1119.000000,482.333221 1119.000000,722.999878 
	C973.833313,723.000000 828.666687,723.000000 683.000000,723.000000 
M819.536621,388.780396 
	C819.950256,388.106903 820.363892,387.433411 820.920776,386.398682 
	C820.920776,386.398682 821.047913,386.031494 821.693054,385.878601 
	C822.760071,383.580902 823.827087,381.283203 824.997375,378.367950 
	C825.091125,377.961243 825.184875,377.554535 825.948730,377.053101 
	C826.414917,375.377960 826.881104,373.702850 827.400513,371.430267 
	C827.461121,371.035919 827.521790,370.641541 828.236084,369.966675 
	C830.377808,363.891357 831.227539,357.863098 827.458618,351.485687 
	C827.426636,351.135925 827.394592,350.786163 827.756226,349.701050 
	C826.909546,348.093048 826.062805,346.485016 825.054382,344.266327 
	C824.965881,343.854980 824.877441,343.443634 825.238525,342.641449 
	C823.174133,339.751038 821.109680,336.860626 818.907104,333.600983 
	C818.907104,333.600983 818.777466,333.228607 818.790161,332.578888 
	C818.143555,332.105225 817.497009,331.631592 816.998535,331.023407 
	C816.998535,331.023407 816.838684,331.142975 816.860168,330.427856 
	C815.109253,329.111420 813.358398,327.794983 811.097839,326.131622 
	C810.470398,325.612579 809.842896,325.093536 809.138245,323.895569 
	C806.980591,322.716370 804.822998,321.537170 801.932495,320.224030 
	C785.520935,314.270874 770.035706,315.459900 756.213806,326.796387 
	C746.546082,334.725586 740.617371,344.768921 739.847717,357.650024 
	C739.341003,366.129517 740.995850,374.044220 744.025269,382.431366 
	C744.733521,383.238312 745.441772,384.045227 745.992371,384.961975 
	C745.992371,384.961975 746.156189,384.865601 745.989075,385.579071 
	C747.040405,386.667236 748.091797,387.755402 749.032593,389.006165 
	C749.032593,389.006165 749.157532,388.852814 749.237793,389.554657 
	C751.166992,391.361694 753.096191,393.168762 755.000000,395.000000 
	C755.000000,395.000000 755.022278,394.974213 755.124390,395.652618 
	C759.068542,399.414825 762.903748,403.376251 769.576111,403.343719 
	C769.967957,403.429138 770.359802,403.514557 770.963928,404.230438 
	C772.971924,404.547089 774.979980,404.863708 777.919189,405.214783 
	C782.285583,405.210144 786.652039,405.205505 791.523499,405.750732 
	C796.624634,404.035065 801.792542,402.487457 806.787964,400.505310 
	C808.368958,399.877991 809.489319,398.089844 810.968933,396.985809 
	C810.968933,396.985809 810.840088,396.816254 811.558838,396.849426 
	C813.366150,394.892609 815.173401,392.935791 817.000000,391.000000 
	C817.000000,391.000000 816.978943,390.981079 817.656921,390.954865 
	C818.066223,390.266968 818.475586,389.579071 819.000000,388.996613 
	C819.000000,388.996613 818.888306,388.886444 819.536621,388.780396 
M951.998474,389.017120 
	C951.998474,389.017120 951.939514,389.074799 951.852295,389.769806 
	C952.529602,390.206116 953.206909,390.642456 954.172668,391.342499 
	C954.172668,391.342499 954.313232,391.707153 954.084473,392.374176 
	C954.805786,392.821442 955.527100,393.268738 956.161621,393.787598 
	C956.161621,393.787598 956.274109,393.784027 956.092590,394.461975 
	C958.544495,396.114594 960.996399,397.767181 963.864136,399.529999 
	C963.864136,399.529999 964.234619,399.748749 964.267822,400.444366 
	C966.509399,401.327820 968.750916,402.211304 971.586426,403.236359 
	C971.983154,403.325012 972.379822,403.413635 973.041382,404.103607 
	C975.024658,404.441742 977.007874,404.779907 979.924622,405.162964 
	C984.619629,405.143250 989.314697,405.123535 994.406311,405.638458 
	C996.343811,404.917603 998.281311,404.196747 1000.810120,403.302002 
	C1001.206421,403.197693 1001.602722,403.093384 1002.343384,403.501709 
	C1004.231873,402.338623 1006.120361,401.175537 1008.439636,399.635590 
	C1008.806641,399.536041 1009.173584,399.436523 1010.195435,399.614502 
	C1011.114563,398.725159 1012.033630,397.835815 1012.997559,397.001221 
	C1012.997559,397.001221 1012.948425,396.948425 1013.649231,397.077576 
	C1014.811707,395.789795 1015.974182,394.502014 1017.470947,393.000641 
	C1017.470947,393.000641 1017.839661,392.854370 1018.546997,392.906677 
	C1019.274841,391.849945 1020.002625,390.793213 1020.848694,389.361572 
	C1020.848694,389.361572 1021.125977,389.083038 1021.825317,389.105927 
	C1022.192932,388.376495 1022.560486,387.647034 1023.142517,386.255219 
	C1024.924805,382.990326 1026.850464,379.793793 1028.448853,376.441223 
	C1030.032104,373.120483 1027.977417,368.238495 1024.517456,366.451355 
	C1021.576721,364.932465 1016.872864,366.403564 1015.019653,369.541565 
	C1014.182251,370.959534 1013.623352,372.539825 1012.904541,374.030273 
	C1005.891418,388.571716 989.582764,394.715942 974.464355,388.375031 
	C970.508423,386.715881 967.328857,383.205933 962.878418,379.858154 
	C974.357300,374.710907 984.213257,370.310120 994.053223,365.873688 
	C1003.432983,361.644775 1012.846008,357.484558 1022.145508,353.085083 
	C1026.896362,350.837524 1028.803589,345.720398 1026.524658,341.553223 
	C1013.897339,318.464050 986.588806,309.609436 964.047241,322.971985 
	C954.136658,328.846924 947.200867,337.441284 943.966614,348.645355 
	C940.021667,362.311523 942.582642,375.029755 949.990967,387.601074 
	C950.636230,388.086304 951.281555,388.571564 951.998474,389.017120 
M157.873642,409.613983 
	C157.257843,409.164917 156.642044,408.715851 155.502457,407.794434 
	C141.402725,393.870056 127.471245,379.769592 113.145248,366.082062 
	C103.273773,356.650482 99.755707,339.895386 109.630814,328.662201 
	C116.880142,320.415894 124.354355,312.358612 131.939026,304.418304 
	C138.963501,297.064453 146.267685,289.977753 154.292557,282.813019 
	C159.225266,281.560425 164.108551,279.535156 169.100967,279.215698 
	C179.573364,278.545654 187.905228,283.708740 195.664490,290.296631 
	C204.682404,297.953186 213.938690,305.348480 223.361328,312.501740 
	C229.290726,317.003113 233.880234,316.846802 239.237228,313.065735 
	C246.860214,307.685303 246.857422,297.225586 239.227158,291.030365 
	C228.882324,282.631165 218.595200,274.159393 208.168228,265.863403 
	C200.093613,259.438995 191.275482,254.517792 180.684555,252.945755 
	C186.675873,246.268509 192.576309,239.506683 198.686722,232.940262 
	C203.753036,227.495834 203.336288,218.796906 198.102951,213.608444 
	C193.380157,208.926163 185.491150,208.022980 179.142700,214.810944 
	C165.316925,229.593887 151.497498,244.382736 137.687851,259.180725 
	C122.803909,275.129883 108.121704,291.273132 92.980690,306.974121 
	C85.157677,315.086487 79.189713,324.300781 77.476006,335.198578 
	C74.462090,354.364716 80.316704,371.155151 94.208839,384.937103 
	C101.705269,392.374146 109.119453,399.897369 116.741295,407.203796 
	C124.287033,414.437286 132.047211,421.447113 139.702423,429.194885 
	C146.751572,432.521332 153.538940,436.675842 160.903656,439.004059 
	C176.857788,444.047546 192.304337,441.033203 205.151901,430.883575 
	C216.604736,421.835785 226.657898,410.957977 236.916031,400.483521 
	C241.325089,395.981506 240.711090,388.101898 236.690582,383.606415 
	C230.802444,377.022705 223.138016,376.988739 216.353134,383.640289 
	C208.821274,391.024078 201.438049,398.560150 193.871307,405.907562 
	C188.323959,411.294128 181.608795,414.613739 173.826904,413.888733 
	C168.392166,413.382355 163.090164,411.451569 157.877106,410.100952 
	C157.877106,410.100952 157.886978,410.259125 157.873642,409.613983 
M913.364014,289.825378 
	C913.197693,301.945953 913.031372,314.066528 912.856384,326.819672 
	C908.324341,324.153503 905.135193,321.658295 901.521729,320.259888 
	C886.705139,314.526031 872.391541,315.361603 859.033691,324.576538 
	C839.580383,337.996429 833.997192,362.568787 844.989014,382.306488 
	C856.112427,402.280548 874.354553,408.505737 892.963318,404.650146 
	C914.304016,400.228546 928.146240,383.157410 928.534607,361.805298 
	C928.952576,338.824310 928.631653,315.830139 928.672729,292.841797 
	C928.681213,288.080231 926.473999,284.599213 921.996033,283.606781 
	C917.915039,282.702393 915.321960,285.575592 913.364014,289.825378 
M470.737976,324.895416 
	C469.298737,324.078186 467.858002,323.263550 466.420441,322.443298 
	C454.766754,315.793701 442.495361,314.849792 430.100128,319.545410 
	C416.103485,324.847656 406.688477,334.830566 402.561768,349.402039 
	C398.541901,363.596344 400.951019,377.023041 410.085022,388.283081 
	C422.660065,403.785095 439.317963,409.307007 458.682922,403.351105 
	C472.507629,399.099152 482.050995,389.739899 486.914856,375.894623 
	C488.467468,371.475067 486.602905,368.141907 482.894958,366.525024 
	C479.150238,364.892151 475.492279,365.897949 473.582520,370.225281 
	C472.732605,372.151093 471.797546,374.051788 470.744995,375.873688 
	C463.412140,388.566772 448.837860,394.203369 434.090210,388.750458 
	C429.599640,387.090088 424.953339,384.737000 423.253693,379.047455 
	C434.905823,373.867126 446.154266,368.907898 457.366364,363.867767 
	C465.421844,360.246552 473.508514,356.679108 481.428406,352.777435 
	C486.451355,350.302917 487.942657,346.402069 484.831665,341.719727 
	C480.920776,335.833435 475.911407,330.676971 470.737976,324.895416 
M574.076843,328.527802 
	C567.546753,323.394287 560.599915,319.607941 552.233521,317.638123 
	C528.588928,312.071228 503.785736,331.475952 500.422852,353.456329 
	C497.235199,374.291351 507.429108,392.273193 524.062683,400.891541 
	C547.191772,412.875366 576.486633,401.213531 585.645996,376.908203 
	C587.166992,372.872101 585.300415,367.921234 581.649536,366.307922 
	C578.124878,364.750366 573.766357,366.659760 571.968994,370.970917 
	C567.747131,381.097778 560.638550,387.523132 549.833679,390.293365 
	C541.476624,392.436035 525.079102,388.121063 522.022827,379.225647 
	C527.218018,376.841156 532.422180,374.423920 537.649963,372.058746 
	C551.501160,365.792053 565.420776,359.672577 579.193481,353.238220 
	C585.404053,350.336761 586.452393,345.946320 582.635193,339.987946 
	C580.189331,336.170135 577.286133,332.645325 574.076843,328.527802 
M693.125732,301.095490 
	C695.366760,300.514771 697.603516,299.461365 699.849548,299.441284 
	C706.814331,299.379089 713.783569,299.676697 720.749084,299.899933 
	C725.090454,300.039062 729.009644,297.324982 729.423279,293.369080 
	C729.876282,289.035889 726.990112,286.333710 723.438721,285.373474 
	C710.752502,281.943298 697.878845,282.526733 685.885681,287.527222 
	C656.578552,299.746857 639.865601,332.083710 650.576965,363.995117 
	C660.377075,393.191467 691.437500,411.987427 723.334106,403.421997 
	C725.641968,402.802277 728.328918,400.216248 729.018494,397.982330 
	C729.604309,396.084595 728.185852,392.123230 726.539856,391.298309 
	C723.595520,389.822693 719.612061,389.029236 716.411804,389.676117 
	C691.425110,394.727020 668.242676,378.027863 663.672363,355.281677 
	C658.862793,331.344604 667.711365,312.587158 693.125732,301.095490 
M200.500000,333.004150 
	C187.500656,333.012268 174.500122,332.917725 161.502472,333.069916 
	C154.552032,333.151306 147.868652,339.965240 148.081604,346.589630 
	C148.292618,353.153534 154.222229,359.901703 161.091125,359.909851 
	C193.922775,359.948822 226.756821,360.099670 259.582733,359.662567 
	C263.038879,359.616577 267.813385,356.812531 269.631012,353.849457 
	C276.040039,343.401489 269.494873,333.065674 256.997192,333.025391 
	C238.498306,332.965790 219.999084,333.006287 200.500000,333.004150 
M624.620667,405.465881 
	C626.784546,405.450012 629.288940,406.120789 631.031921,405.256287 
	C633.604065,403.980560 637.006470,401.915039 637.511780,399.624695 
	C638.023132,397.307037 636.058777,393.580872 634.014526,391.834686 
	C632.379761,390.438293 629.003418,390.935730 626.391968,390.856018 
	C619.429077,390.643433 615.904785,387.507141 615.824768,380.485138 
	C615.657837,365.837433 615.840149,351.185944 615.721313,336.537292 
	C615.693665,333.129303 617.325195,332.193237 620.290649,332.240875 
	C623.285767,332.289032 626.295044,332.391754 629.276306,332.173431 
	C634.811096,331.768066 638.165100,328.511932 637.969543,324.021912 
	C637.783325,319.746368 634.372437,316.836273 629.039551,316.579926 
	C626.215759,316.444183 623.371704,316.398773 620.552795,316.572723 
	C616.855530,316.800934 615.632141,315.245331 615.693542,311.587097 
	C615.813354,304.443909 615.670654,297.284607 615.267639,290.152832 
	C615.170105,288.427002 614.030579,285.931030 612.669434,285.299500 
	C610.617371,284.347443 607.798828,284.119446 605.576172,284.671356 
	C601.855286,285.595245 600.941467,288.811157 600.945801,292.410370 
	C600.981628,322.375458 600.880676,352.340973 601.008057,382.305573 
	C601.064087,395.487885 610.345947,404.722748 624.620667,405.465881 
M351.348419,359.500366 
	C351.344421,337.025818 351.374603,314.551178 351.307587,292.076813 
	C351.294250,287.599854 347.248779,283.242828 343.606628,283.382111 
	C339.681610,283.532166 336.608521,287.084290 336.605591,291.878387 
	C336.587585,321.344543 336.782135,350.811615 336.592651,380.276367 
	C336.514679,392.404083 348.135437,404.907867 361.083862,405.307953 
	C369.566223,405.570038 378.062805,405.505402 386.550690,405.400269 
	C390.962036,405.345703 394.524567,402.004272 394.621216,398.289612 
	C394.723419,394.360535 391.078705,390.932251 386.512085,390.879761 
	C379.021484,390.793640 371.518127,391.087341 364.041107,390.752899 
	C356.086456,390.397095 351.174591,385.267365 351.345428,377.979553 
	C351.481934,372.156342 351.357117,366.326965 351.348419,359.500366 
z"/>
<path fill="#080705" opacity="1.000000" stroke="none" 
	d="
M139.713318,428.555054 
	C132.047211,421.447113 124.287033,414.437286 116.741295,407.203796 
	C109.119453,399.897369 101.705269,392.374146 94.208839,384.937103 
	C80.316704,371.155151 74.462090,354.364716 77.476006,335.198578 
	C79.189713,324.300781 85.157677,315.086487 92.980690,306.974121 
	C108.121704,291.273132 122.803909,275.129883 137.687851,259.180725 
	C151.497498,244.382736 165.316925,229.593887 179.142700,214.810944 
	C185.491150,208.022980 193.380157,208.926163 198.102951,213.608444 
	C203.336288,218.796906 203.753036,227.495834 198.686722,232.940262 
	C192.576309,239.506683 186.675873,246.268509 180.330811,253.249542 
	C175.321793,258.334808 170.534027,262.995911 166.049057,267.932129 
	C161.687469,272.732513 157.636215,277.814850 153.448700,282.773407 
	C146.267685,289.977753 138.963501,297.064453 131.939026,304.418304 
	C124.354355,312.358612 116.880142,320.415894 109.630814,328.662201 
	C99.755707,339.895386 103.273773,356.650482 113.145248,366.082062 
	C127.471245,379.769592 141.402725,393.870056 155.714569,408.385925 
	C156.580124,409.404663 157.233566,409.831879 157.886993,410.259094 
	C157.886978,410.259125 157.877106,410.100952 157.646729,410.549316 
	C158.487915,419.464661 156.267410,425.021576 149.761536,427.590332 
	C146.754028,428.777802 143.083328,428.285675 139.713318,428.555054 
z"/>
<path fill="#0E0E0E" opacity="1.000000" stroke="none" 
	d="
M913.530151,289.491943 
	C915.321960,285.575592 917.915039,282.702393 921.996033,283.606781 
	C926.473999,284.599213 928.681213,288.080231 928.672729,292.841797 
	C928.631653,315.830139 928.952576,338.824310 928.534607,361.805298 
	C928.146240,383.157410 914.304016,400.228546 892.963318,404.650146 
	C874.354553,408.505737 856.112427,402.280548 844.989014,382.306488 
	C833.997192,362.568787 839.580383,337.996429 859.033691,324.576538 
	C872.391541,315.361603 886.705139,314.526031 901.521729,320.259888 
	C905.135193,321.658295 908.324341,324.153503 912.856384,326.819672 
	C913.031372,314.066528 913.197693,301.945953 913.530151,289.491943 
M911.519348,371.575043 
	C912.043640,368.475067 912.908813,365.388733 913.033936,362.272705 
	C913.613953,347.824005 905.449707,337.842377 892.988831,333.358887 
	C880.784485,328.967651 864.922302,335.334991 858.675903,346.546722 
	C848.926575,364.045898 858.739624,384.421722 875.810303,389.595154 
	C890.331787,393.996063 906.782593,384.906616 911.519348,371.575043 
z"/>
<path fill="#0B0B0B" opacity="1.000000" stroke="none" 
	d="
M471.057007,325.050476 
	C475.911407,330.676971 480.920776,335.833435 484.831665,341.719727 
	C487.942657,346.402069 486.451355,350.302917 481.428406,352.777435 
	C473.508514,356.679108 465.421844,360.246552 457.366364,363.867767 
	C446.154266,368.907898 434.905823,373.867126 423.253693,379.047455 
	C424.953339,384.737000 429.599640,387.090088 434.090210,388.750458 
	C448.837860,394.203369 463.412140,388.566772 470.744995,375.873688 
	C471.797546,374.051788 472.732605,372.151093 473.582520,370.225281 
	C475.492279,365.897949 479.150238,364.892151 482.894958,366.525024 
	C486.602905,368.141907 488.467468,371.475067 486.914856,375.894623 
	C482.050995,389.739899 472.507629,399.099152 458.682922,403.351105 
	C439.317963,409.307007 422.660065,403.785095 410.085022,388.283081 
	C400.951019,377.023041 398.541901,363.596344 402.561768,349.402039 
	C406.688477,334.830566 416.103485,324.847656 430.100128,319.545410 
	C442.495361,314.849792 454.766754,315.793701 466.420441,322.443298 
	C467.858002,323.263550 469.298737,324.078186 471.057007,325.050476 
M428.066772,337.425232 
	C417.943665,346.480896 413.974396,356.366638 417.068146,365.578461 
	C433.847443,357.938721 450.584991,350.317993 467.437836,342.644775 
	C459.567596,331.236053 440.444794,329.073883 428.066772,337.425232 
z"/>
<path fill="#0B0B0B" opacity="1.000000" stroke="none" 
	d="
M574.332397,328.758484 
	C577.286133,332.645325 580.189331,336.170135 582.635193,339.987946 
	C586.452393,345.946320 585.404053,350.336761 579.193481,353.238220 
	C565.420776,359.672577 551.501160,365.792053 537.649963,372.058746 
	C532.422180,374.423920 527.218018,376.841156 522.022827,379.225647 
	C525.079102,388.121063 541.476624,392.436035 549.833679,390.293365 
	C560.638550,387.523132 567.747131,381.097778 571.968994,370.970917 
	C573.766357,366.659760 578.124878,364.750366 581.649536,366.307922 
	C585.300415,367.921234 587.166992,372.872101 585.645996,376.908203 
	C576.486633,401.213531 547.191772,412.875366 524.062683,400.891541 
	C507.429108,392.273193 497.235199,374.291351 500.422852,353.456329 
	C503.785736,331.475952 528.588928,312.071228 552.233521,317.638123 
	C560.599915,319.607941 567.546753,323.394287 574.332397,328.758484 
M520.330872,343.887115 
	C516.639954,350.464783 513.077515,357.065826 516.136108,365.514008 
	C533.084534,357.780060 549.517517,350.281281 566.062988,342.731232 
	C557.175964,329.582489 532.833679,327.801544 520.330872,343.887115 
z"/>
<path fill="#0B0B0B" opacity="1.000000" stroke="none" 
	d="
M950.070557,386.917969 
	C942.582642,375.029755 940.021667,362.311523 943.966614,348.645355 
	C947.200867,337.441284 954.136658,328.846924 964.047241,322.971985 
	C986.588806,309.609436 1013.897339,318.464050 1026.524658,341.553223 
	C1028.803589,345.720398 1026.896362,350.837524 1022.145508,353.085083 
	C1012.846008,357.484558 1003.432983,361.644775 994.053223,365.873688 
	C984.213257,370.310120 974.357300,374.710907 962.878418,379.858154 
	C967.328857,383.205933 970.508423,386.715881 974.464355,388.375031 
	C989.582764,394.715942 1005.891418,388.571716 1012.904541,374.030273 
	C1013.623352,372.539825 1014.182251,370.959534 1015.019653,369.541565 
	C1016.872864,366.403564 1021.576721,364.932465 1024.517456,366.451355 
	C1027.977417,368.238495 1030.032104,373.120483 1028.448853,376.441223 
	C1026.850464,379.793793 1024.924805,382.990326 1022.726074,386.650208 
	C1021.915039,387.724457 1021.520447,388.403717 1021.125977,389.083008 
	C1021.125977,389.083038 1020.848694,389.361572 1020.458496,389.597351 
	C1019.325378,390.840210 1018.582520,391.847290 1017.839661,392.854370 
	C1017.839661,392.854370 1017.470947,393.000641 1016.966919,393.094513 
	C1015.291321,394.441711 1014.119873,395.695068 1012.948425,396.948425 
	C1012.948425,396.948425 1012.997559,397.001221 1012.634827,396.916168 
	C1011.361572,397.666412 1010.451111,398.501678 1009.540588,399.336975 
	C1009.173584,399.436523 1008.806641,399.536041 1007.862061,399.791260 
	C1005.522705,400.960999 1003.760864,401.975037 1001.999023,402.989105 
	C1001.602722,403.093384 1001.206421,403.197693 1000.139038,403.273987 
	C997.648499,403.865265 995.829102,404.484528 994.009705,405.103821 
	C989.314697,405.123535 984.619629,405.143250 979.282959,404.814941 
	C976.686401,404.145386 974.731506,403.823822 972.776550,403.502258 
	C972.379822,403.413635 971.983154,403.325012 971.201172,402.818481 
	C968.622192,401.516632 966.428406,400.632690 964.234619,399.748749 
	C964.234619,399.748749 963.864136,399.529999 963.567749,399.153809 
	C960.938904,397.113098 958.606506,395.448547 956.274109,393.783997 
	C956.274109,393.784027 956.161621,393.787598 956.202148,393.437073 
	C955.599487,392.626740 954.956360,392.166931 954.313232,391.707153 
	C954.313232,391.707153 954.172668,391.342499 953.998352,390.896729 
	C953.195862,389.992279 952.567688,389.533539 951.939514,389.074799 
	C951.939514,389.074799 951.998474,389.017120 951.974609,388.703918 
	C951.324036,387.899780 950.697266,387.408875 950.070557,386.917969 
M984.010193,332.560028 
	C981.265930,333.059326 978.297058,333.050110 975.816223,334.145813 
	C965.011536,338.917755 958.174927,346.834259 957.504150,359.102997 
	C957.410645,360.813049 957.885925,362.554199 958.097900,364.280945 
	C959.830872,364.032043 961.726562,364.152283 963.269470,363.472260 
	C971.137085,360.004547 978.915833,356.335022 986.721191,352.726227 
	C993.927734,349.394318 1001.128540,346.049927 1008.445618,342.658295 
	C1002.516052,334.759491 995.872009,331.994965 984.010193,332.560028 
z"/>
<path fill="#0B0B0B" opacity="1.000000" stroke="none" 
	d="
M827.362610,350.436401 
	C827.394592,350.786163 827.426636,351.135925 827.345703,352.083252 
	C827.349365,358.536255 827.465881,364.391724 827.582397,370.247192 
	C827.521790,370.641541 827.461121,371.035919 827.048096,371.897003 
	C826.223389,373.958435 825.750977,375.553101 825.278687,377.147797 
	C825.184875,377.554535 825.091125,377.961243 824.605347,378.745117 
	C823.158203,381.425323 822.103027,383.728394 821.047913,386.031494 
	C821.047913,386.031494 820.920776,386.398682 820.499878,386.557800 
	C819.682068,387.440063 819.285156,388.163239 818.888306,388.886414 
	C818.888306,388.886444 819.000000,388.996613 818.606201,388.959473 
	C817.801331,389.608582 817.390137,390.294830 816.978943,390.981079 
	C816.978943,390.981079 817.000000,391.000000 816.646362,391.018646 
	C814.475159,392.963623 812.657654,394.889954 810.840088,396.816284 
	C810.840088,396.816254 810.968933,396.985809 810.531616,396.886414 
	C807.056641,398.349030 804.084167,400.059021 800.963501,401.432312 
	C797.723145,402.858215 794.339417,403.958313 791.018433,405.200867 
	C786.652039,405.205505 782.285583,405.210144 777.247986,404.890198 
	C774.635071,404.243713 772.693359,403.921844 770.751648,403.599976 
	C770.359802,403.514557 769.967957,403.429138 769.133301,402.963745 
	C764.134399,400.047241 759.578369,397.510742 755.022278,394.974213 
	C755.022278,394.974213 755.000000,395.000000 754.968018,394.650421 
	C753.009827,392.484833 751.083679,390.668823 749.157532,388.852844 
	C749.157532,388.852814 749.032593,389.006165 749.098511,388.583801 
	C748.161621,387.062836 747.158936,385.964203 746.156189,384.865601 
	C746.156189,384.865601 745.992371,384.961975 746.144165,384.573486 
	C745.620483,383.371704 744.945068,382.558441 744.269714,381.745148 
	C740.995850,374.044220 739.341003,366.129517 739.847717,357.650024 
	C740.617371,344.768921 746.546082,334.725586 756.213806,326.796387 
	C770.035706,315.459900 785.520935,314.270874 802.326416,320.638916 
	C804.885315,322.227356 807.050415,323.400940 809.215454,324.574524 
	C809.842896,325.093536 810.470398,325.612579 811.494507,326.601562 
	C813.540344,328.428680 815.189514,329.785828 816.838684,331.142975 
	C816.838684,331.142975 816.998535,331.023407 816.896301,331.432861 
	C817.455200,332.304413 818.116333,332.766510 818.777466,333.228638 
	C818.777466,333.228607 818.907104,333.600983 818.920166,334.147247 
	C820.885071,337.473114 822.837036,340.252686 824.788940,343.032288 
	C824.877441,343.443634 824.965881,343.854980 825.048279,344.926819 
	C825.815674,347.203705 826.589111,348.820038 827.362610,350.436401 
M756.305542,353.010468 
	C755.807007,354.404877 755.041504,355.763672 754.850159,357.199066 
	C752.150879,377.439392 771.184143,395.924744 792.180420,389.496826 
	C812.628845,383.236633 818.336426,360.413666 808.830139,345.665070 
	C802.173645,335.337860 792.224792,331.389008 779.928711,332.605164 
	C769.447449,333.641785 759.104553,342.002594 756.305542,353.010468 
z"/>
<path fill="#0D0D0D" opacity="1.000000" stroke="none" 
	d="
M692.726135,301.190155 
	C667.711365,312.587158 658.862793,331.344604 663.672363,355.281677 
	C668.242676,378.027863 691.425110,394.727020 716.411804,389.676117 
	C719.612061,389.029236 723.595520,389.822693 726.539856,391.298309 
	C728.185852,392.123230 729.604309,396.084595 729.018494,397.982330 
	C728.328918,400.216248 725.641968,402.802277 723.334106,403.421997 
	C691.437500,411.987427 660.377075,393.191467 650.576965,363.995117 
	C639.865601,332.083710 656.578552,299.746857 685.885681,287.527222 
	C697.878845,282.526733 710.752502,281.943298 723.438721,285.373474 
	C726.990112,286.333710 729.876282,289.035889 729.423279,293.369080 
	C729.009644,297.324982 725.090454,300.039062 720.749084,299.899933 
	C713.783569,299.676697 706.814331,299.379089 699.849548,299.441284 
	C697.603516,299.461365 695.366760,300.514771 692.726135,301.190155 
z"/>
<path fill="#B5B5B5" opacity="1.000000" stroke="none" 
	d="
M201.000000,333.004150 
	C219.999084,333.006287 238.498306,332.965790 256.997192,333.025391 
	C269.494873,333.065674 276.040039,343.401489 269.631012,353.849457 
	C267.813385,356.812531 263.038879,359.616577 259.582733,359.662567 
	C226.756821,360.099670 193.922775,359.948822 161.091125,359.909851 
	C154.222229,359.901703 148.292618,353.153534 148.081604,346.589630 
	C147.868652,339.965240 154.552032,333.151306 161.502472,333.069916 
	C174.500122,332.917725 187.500656,333.012268 201.000000,333.004150 
z"/>
<path fill="#FCA235" opacity="1.000000" stroke="none" 
	d="
M139.707870,428.874969 
	C143.083328,428.285675 146.754028,428.777802 149.761536,427.590332 
	C156.267410,425.021576 158.487915,419.464661 157.572601,410.577332 
	C163.090164,411.451569 168.392166,413.382355 173.826904,413.888733 
	C181.608795,414.613739 188.323959,411.294128 193.871307,405.907562 
	C201.438049,398.560150 208.821274,391.024078 216.353134,383.640289 
	C223.138016,376.988739 230.802444,377.022705 236.690582,383.606415 
	C240.711090,388.101898 241.325089,395.981506 236.916031,400.483521 
	C226.657898,410.957977 216.604736,421.835785 205.151901,430.883575 
	C192.304337,441.033203 176.857788,444.047546 160.903656,439.004059 
	C153.538940,436.675842 146.751572,432.521332 139.707870,428.874969 
z"/>
<path fill="#090909" opacity="1.000000" stroke="none" 
	d="
M624.169922,405.450195 
	C610.345947,404.722748 601.064087,395.487885 601.008057,382.305573 
	C600.880676,352.340973 600.981628,322.375458 600.945801,292.410370 
	C600.941467,288.811157 601.855286,285.595245 605.576172,284.671356 
	C607.798828,284.119446 610.617371,284.347443 612.669434,285.299500 
	C614.030579,285.931030 615.170105,288.427002 615.267639,290.152832 
	C615.670654,297.284607 615.813354,304.443909 615.693542,311.587097 
	C615.632141,315.245331 616.855530,316.800934 620.552795,316.572723 
	C623.371704,316.398773 626.215759,316.444183 629.039551,316.579926 
	C634.372437,316.836273 637.783325,319.746368 637.969543,324.021912 
	C638.165100,328.511932 634.811096,331.768066 629.276306,332.173431 
	C626.295044,332.391754 623.285767,332.289032 620.290649,332.240875 
	C617.325195,332.193237 615.693665,333.129303 615.721313,336.537292 
	C615.840149,351.185944 615.657837,365.837433 615.824768,380.485138 
	C615.904785,387.507141 619.429077,390.643433 626.391968,390.856018 
	C629.003418,390.935730 632.379761,390.438293 634.014526,391.834686 
	C636.058777,393.580872 638.023132,397.307037 637.511780,399.624695 
	C637.006470,401.915039 633.604065,403.980560 631.031921,405.256287 
	C629.288940,406.120789 626.784546,405.450012 624.169922,405.450195 
z"/>
<path fill="#060606" opacity="1.000000" stroke="none" 
	d="
M351.348358,360.000366 
	C351.357117,366.326965 351.481934,372.156342 351.345428,377.979553 
	C351.174591,385.267365 356.086456,390.397095 364.041107,390.752899 
	C371.518127,391.087341 379.021484,390.793640 386.512085,390.879761 
	C391.078705,390.932251 394.723419,394.360535 394.621216,398.289612 
	C394.524567,402.004272 390.962036,405.345703 386.550690,405.400269 
	C378.062805,405.505402 369.566223,405.570038 361.083862,405.307953 
	C348.135437,404.907867 336.514679,392.404083 336.592651,380.276367 
	C336.782135,350.811615 336.587585,321.344543 336.605591,291.878387 
	C336.608521,287.084290 339.681610,283.532166 343.606628,283.382111 
	C347.248779,283.242828 351.294250,287.599854 351.307587,292.076813 
	C351.374603,314.551178 351.344421,337.025818 351.348358,360.000366 
z"/>
<path fill="#FBA235" opacity="1.000000" stroke="none" 
	d="
M153.870621,282.793213 
	C157.636215,277.814850 161.687469,272.732513 166.049057,267.932129 
	C170.534027,262.995911 175.321793,258.334808 180.333145,253.612335 
	C191.275482,254.517792 200.093613,259.438995 208.168228,265.863403 
	C218.595200,274.159393 228.882324,282.631165 239.227158,291.030365 
	C246.857422,297.225586 246.860214,307.685303 239.237228,313.065735 
	C233.880234,316.846802 229.290726,317.003113 223.361328,312.501740 
	C213.938690,305.348480 204.682404,297.953186 195.664490,290.296631 
	C187.905228,283.708740 179.573364,278.545654 169.100967,279.215698 
	C164.108551,279.535156 159.225266,281.560425 153.870621,282.793213 
z"/>
<path fill="#9E9E9E" opacity="1.000000" stroke="none" 
	d="
M827.909241,370.106934 
	C827.465881,364.391724 827.349365,358.536255 827.407227,352.339691 
	C831.227539,357.863098 830.377808,363.891357 827.909241,370.106934 
z"/>
<path fill="#9E9E9E" opacity="1.000000" stroke="none" 
	d="
M791.270996,405.475800 
	C794.339417,403.958313 797.723145,402.858215 800.963501,401.432312 
	C804.084167,400.059021 807.056641,398.349030 810.457397,396.809937 
	C809.489319,398.089844 808.368958,399.877991 806.787964,400.505310 
	C801.792542,402.487457 796.624634,404.035065 791.270996,405.475800 
z"/>
<path fill="#9E9E9E" opacity="1.000000" stroke="none" 
	d="
M755.073364,395.313416 
	C759.578369,397.510742 764.134399,400.047241 768.836670,402.910675 
	C762.903748,403.376251 759.068542,399.414825 755.073364,395.313416 
z"/>
<path fill="#9E9E9E" opacity="1.000000" stroke="none" 
	d="
M825.013733,342.836853 
	C822.837036,340.252686 820.885071,337.473114 818.989197,334.331879 
	C821.109680,336.860626 823.174133,339.751038 825.013733,342.836853 
z"/>
<path fill="#9E9E9E" opacity="1.000000" stroke="none" 
	d="
M956.183350,394.122986 
	C958.606506,395.448547 960.938904,397.113098 963.359741,399.098694 
	C960.996399,397.767181 958.544495,396.114594 956.183350,394.122986 
z"/>
<path fill="#9E9E9E" opacity="1.000000" stroke="none" 
	d="
M821.370483,385.955048 
	C822.103027,383.728394 823.158203,381.425323 824.553711,379.053894 
	C823.827087,381.283203 822.760071,383.580902 821.370483,385.955048 
z"/>
<path fill="#9E9E9E" opacity="1.000000" stroke="none" 
	d="
M809.176880,324.235046 
	C807.050415,323.400940 804.885315,322.227356 802.692810,320.705872 
	C804.822998,321.537170 806.980591,322.716370 809.176880,324.235046 
z"/>
<path fill="#9E9E9E" opacity="1.000000" stroke="none" 
	d="
M749.197632,389.203735 
	C751.083679,390.668823 753.009827,392.484833 754.980713,394.638336 
	C753.096191,393.168762 751.166992,391.361694 749.197632,389.203735 
z"/>
<path fill="#9E9E9E" opacity="1.000000" stroke="none" 
	d="
M811.199463,396.832855 
	C812.657654,394.889954 814.475159,392.963623 816.636719,391.008118 
	C815.173401,392.935791 813.366150,394.892609 811.199463,396.832855 
z"/>
<path fill="#9E9E9E" opacity="1.000000" stroke="none" 
	d="
M972.908936,403.802917 
	C974.731506,403.823822 976.686401,404.145386 978.816284,404.792480 
	C977.007874,404.779907 975.024658,404.441742 972.908936,403.802917 
z"/>
<path fill="#9E9E9E" opacity="1.000000" stroke="none" 
	d="
M770.857788,403.915222 
	C772.693359,403.921844 774.635071,404.243713 776.782349,404.872986 
	C774.979980,404.863708 772.971924,404.547089 770.857788,403.915222 
z"/>
<path fill="#9E9E9E" opacity="1.000000" stroke="none" 
	d="
M994.208008,405.371155 
	C995.829102,404.484528 997.648499,403.865265 999.843384,403.360931 
	C998.281311,404.196747 996.343811,404.917603 994.208008,405.371155 
z"/>
<path fill="#9E9E9E" opacity="1.000000" stroke="none" 
	d="
M964.251221,400.096558 
	C966.428406,400.632690 968.622192,401.516632 970.904236,402.747681 
	C968.750916,402.211304 966.509399,401.327820 964.251221,400.096558 
z"/>
<path fill="#9E9E9E" opacity="1.000000" stroke="none" 
	d="
M827.559448,350.068726 
	C826.589111,348.820038 825.815674,347.203705 825.129150,345.232178 
	C826.062805,346.485016 826.909546,348.093048 827.559448,350.068726 
z"/>
<path fill="#9E9E9E" opacity="1.000000" stroke="none" 
	d="
M825.613647,377.100464 
	C825.750977,375.553101 826.223389,373.958435 827.021484,372.195740 
	C826.881104,373.702850 826.414917,375.377960 825.613647,377.100464 
z"/>
<path fill="#9E9E9E" opacity="1.000000" stroke="none" 
	d="
M816.849426,330.785400 
	C815.189514,329.785828 813.540344,328.428680 811.749329,326.775024 
	C813.358398,327.794983 815.109253,329.111420 816.849426,330.785400 
z"/>
<path fill="#9E9E9E" opacity="1.000000" stroke="none" 
	d="
M1002.171204,403.245422 
	C1003.760864,401.975037 1005.522705,400.960999 1007.646729,399.979675 
	C1006.120361,401.175537 1004.231873,402.338623 1002.171204,403.245422 
z"/>
<path fill="#9E9E9E" opacity="1.000000" stroke="none" 
	d="
M746.072632,385.222351 
	C747.158936,385.964203 748.161621,387.062836 749.153748,388.502502 
	C748.091797,387.755402 747.040405,386.667236 746.072632,385.222351 
z"/>
<path fill="#9E9E9E" opacity="1.000000" stroke="none" 
	d="
M1013.298828,397.013000 
	C1014.119873,395.695068 1015.291321,394.441711 1016.799683,393.201294 
	C1015.974182,394.502014 1014.811707,395.789795 1013.298828,397.013000 
z"/>
<path fill="#9E9E9E" opacity="1.000000" stroke="none" 
	d="
M1009.868042,399.475739 
	C1010.451111,398.501678 1011.361572,397.666412 1012.612427,396.888794 
	C1012.033630,397.835815 1011.114563,398.725159 1009.868042,399.475739 
z"/>
<path fill="#9E9E9E" opacity="1.000000" stroke="none" 
	d="
M1018.193359,392.880493 
	C1018.582520,391.847290 1019.325378,390.840210 1020.399353,389.784790 
	C1020.002625,390.793213 1019.274841,391.849945 1018.193359,392.880493 
z"/>
<path fill="#9E9E9E" opacity="1.000000" stroke="none" 
	d="
M744.147461,382.088257 
	C744.945068,382.558441 745.620483,383.371704 746.222961,384.518555 
	C745.441772,384.045227 744.733521,383.238312 744.147461,382.088257 
z"/>
<path fill="#9E9E9E" opacity="1.000000" stroke="none" 
	d="
M954.198853,392.040649 
	C954.956360,392.166931 955.599487,392.626740 956.245483,393.401276 
	C955.527100,393.268738 954.805786,392.821442 954.198853,392.040649 
z"/>
<path fill="#9E9E9E" opacity="1.000000" stroke="none" 
	d="
M818.783813,332.903748 
	C818.116333,332.766510 817.455200,332.304413 816.822266,331.500122 
	C817.497009,331.631592 818.143555,332.105225 818.783813,332.903748 
z"/>
<path fill="#9E9E9E" opacity="1.000000" stroke="none" 
	d="
M951.895874,389.422302 
	C952.567688,389.533539 953.195862,389.992279 953.854126,390.764893 
	C953.206909,390.642456 952.529602,390.206116 951.895874,389.422302 
z"/>
<path fill="#9E9E9E" opacity="1.000000" stroke="none" 
	d="
M817.317932,390.967957 
	C817.390137,390.294830 817.801331,389.608582 818.548706,388.906738 
	C818.475586,389.579071 818.066223,390.266968 817.317932,390.967957 
z"/>
<path fill="#9E9E9E" opacity="1.000000" stroke="none" 
	d="
M1021.475586,389.094482 
	C1021.520447,388.403717 1021.915039,387.724457 1022.618835,386.981384 
	C1022.560486,387.647034 1022.192932,388.376495 1021.475586,389.094482 
z"/>
<path fill="#9E9E9E" opacity="1.000000" stroke="none" 
	d="
M950.030762,387.259521 
	C950.697266,387.408875 951.324036,387.899780 951.938843,388.723755 
	C951.281555,388.571564 950.636230,388.086304 950.030762,387.259521 
z"/>
<path fill="#9E9E9E" opacity="1.000000" stroke="none" 
	d="
M819.212402,388.833405 
	C819.285156,388.163239 819.682068,387.440063 820.428223,386.738403 
	C820.363892,387.433411 819.950256,388.106903 819.212402,388.833405 
z"/>
<path fill="#FCA235" opacity="1.000000" stroke="none" 
	d="
M157.880310,409.936523 
	C157.233566,409.831879 156.580124,409.404663 155.976471,408.622131 
	C156.642044,408.715851 157.257843,409.164917 157.880310,409.936523 
z"/>
<path fill="#F9F9F9" opacity="1.000000" stroke="none" 
	d="
M911.299438,371.908936 
	C906.782593,384.906616 890.331787,393.996063 875.810303,389.595154 
	C858.739624,384.421722 848.926575,364.045898 858.675903,346.546722 
	C864.922302,335.334991 880.784485,328.967651 892.988831,333.358887 
	C905.449707,337.842377 913.613953,347.824005 913.033936,362.272705 
	C912.908813,365.388733 912.043640,368.475067 911.299438,371.908936 
z"/>
<path fill="#F2F2F2" opacity="1.000000" stroke="none" 
	d="
M428.383606,337.236023 
	C440.444794,329.073883 459.567596,331.236053 467.437836,342.644775 
	C450.584991,350.317993 433.847443,357.938721 417.068146,365.578461 
	C413.974396,356.366638 417.943665,346.480896 428.383606,337.236023 
z"/>
<path fill="#F2F2F2" opacity="1.000000" stroke="none" 
	d="
M520.584290,343.619751 
	C532.833679,327.801544 557.175964,329.582489 566.062988,342.731232 
	C549.517517,350.281281 533.084534,357.780060 516.136108,365.514008 
	C513.077515,357.065826 516.639954,350.464783 520.584290,343.619751 
z"/>
<path fill="#F2F2F2" opacity="1.000000" stroke="none" 
	d="
M984.436890,332.521912 
	C995.872009,331.994965 1002.516052,334.759491 1008.445618,342.658295 
	C1001.128540,346.049927 993.927734,349.394318 986.721191,352.726227 
	C978.915833,356.335022 971.137085,360.004547 963.269470,363.472260 
	C961.726562,364.152283 959.830872,364.032043 958.097900,364.280945 
	C957.885925,362.554199 957.410645,360.813049 957.504150,359.102997 
	C958.174927,346.834259 965.011536,338.917755 975.816223,334.145813 
	C978.297058,333.050110 981.265930,333.059326 984.436890,332.521912 
z"/>
<path fill="#F9F9F9" opacity="1.000000" stroke="none" 
	d="
M756.443787,352.625793 
	C759.104553,342.002594 769.447449,333.641785 779.928711,332.605164 
	C792.224792,331.389008 802.173645,335.337860 808.830139,345.665070 
	C818.336426,360.413666 812.628845,383.236633 792.180420,389.496826 
	C771.184143,395.924744 752.150879,377.439392 754.850159,357.199066 
	C755.041504,355.763672 755.807007,354.404877 756.443787,352.625793 
z"/>
</svg>