<svg version="1.1" id="Layer_1" xmlns="http://www.w3.org/2000/svg" xmlns:xlink="http://www.w3.org/1999/xlink" x="0px" y="0px"
	 width="100%" viewBox="0 0 512 512" enable-background="new 0 0 512 512" xml:space="preserve">
<path fill="#FFFFFF" opacity="1.000000" stroke="none" 
	d="
M513.000000,286.000000 
	C513.000000,361.632294 513.000000,437.264557 513.000000,512.948425 
	C342.445251,512.948425 171.890503,512.948425 1.000000,512.948425 
	C1.000000,439.978912 1.000000,366.957306 1.381680,293.598206 
	C2.174984,294.476288 2.716278,295.664581 2.978385,296.911591 
	C5.960025,311.096985 8.341043,325.436554 11.988718,339.446991 
	C16.695200,357.524109 24.759359,374.300293 34.054871,390.494385 
	C44.865566,409.328186 57.754578,426.675110 72.905769,442.113739 
	C83.221390,452.625122 94.303513,462.620239 106.151573,471.339752 
	C127.068871,486.733612 150.151901,498.486633 174.977310,506.300842 
	C184.447922,509.281891 194.183167,506.519409 194.032608,492.390350 
	C193.883484,478.394287 194.005615,464.395416 193.991547,450.397766 
	C193.990097,448.951233 193.871384,447.504791 193.793793,445.759674 
	C188.574234,446.546906 183.742859,447.962494 178.943253,447.861969 
	C167.609329,447.624603 156.153595,447.538696 144.998520,445.788818 
	C129.247131,443.317902 116.669601,435.384918 109.672340,420.243439 
	C106.843712,414.122467 104.267769,407.841309 100.904640,402.021484 
	C96.450714,394.314087 91.731308,386.773193 84.106400,381.453644 
	C78.283722,377.391418 71.662132,373.883789 68.706047,365.512299 
	C72.521530,364.776459 76.243889,363.201263 79.794876,363.522217 
	C95.143555,364.909363 106.699638,373.259888 115.943436,384.999146 
	C122.213799,392.962250 126.233383,402.650452 135.060623,408.647522 
	C144.865372,415.308716 155.117584,419.511780 167.271820,417.049713 
	C174.691711,415.546661 182.210083,414.515656 189.603073,412.901062 
	C192.408676,412.288330 195.618286,411.524170 195.162918,407.036499 
	C194.952377,404.961487 196.319427,402.754395 196.827118,400.573639 
	C199.033569,391.096313 204.175278,383.279266 211.603821,375.628418 
	C205.434097,375.010437 200.190765,374.922791 195.136841,373.899628 
	C177.796997,370.389038 160.772034,365.948669 145.296600,356.808105 
	C135.037064,350.748291 125.294838,343.845764 118.275078,334.354187 
	C101.244644,311.326935 95.206940,284.498047 94.152229,256.440674 
	C93.834320,247.983963 94.894836,239.396912 96.089432,230.978195 
	C98.573555,213.471710 106.307121,198.239563 117.738235,184.887146 
	C119.797821,182.481384 120.248619,180.653549 119.314255,177.449814 
	C117.381500,170.822876 115.875412,163.979828 115.114433,157.123489 
	C113.853882,145.766113 116.405563,134.680634 119.119209,123.738792 
	C121.883186,112.593971 124.508369,111.235680 136.175186,113.983650 
	C153.539841,118.073669 169.412323,125.651688 184.447327,135.034653 
	C189.759552,138.349884 194.599411,141.454910 201.268753,138.160995 
	C204.336792,136.645737 208.152069,136.585281 211.653107,136.016525 
	C220.134720,134.638702 228.598770,133.061432 237.130936,132.114670 
	C244.161835,131.334488 251.290085,130.940903 258.357391,131.112000 
	C266.033417,131.297852 273.713287,132.132416 281.346771,133.054230 
	C289.713348,134.064575 298.178192,134.893967 306.326538,136.908844 
	C315.269897,139.120316 322.997925,140.230484 331.553528,134.206055 
	C346.038818,124.006218 362.290192,116.943153 379.755798,113.091896 
	C387.789429,111.320435 390.859344,112.912544 393.381317,120.921822 
	C395.016785,126.115891 396.195648,131.466370 397.352539,136.795959 
	C399.960388,148.810303 400.018860,160.859283 395.938934,172.517578 
	C393.739807,178.801468 394.495514,183.430496 398.923950,188.642090 
	C413.326935,205.592224 419.204376,225.931213 419.844543,247.758652 
	C420.112579,256.897095 418.778687,266.095520 417.976471,275.249481 
	C416.597137,290.989044 411.922241,305.876709 404.911713,319.902618 
	C396.356293,337.019379 382.660614,349.095825 365.869873,358.085388 
	C349.437134,366.883270 332.058838,372.124847 313.578156,374.053619 
	C310.107208,374.415894 306.699615,375.385254 302.761475,376.175049 
	C314.810150,388.078857 319.608276,402.175873 319.882324,417.663666 
	C320.321533,442.485046 319.994324,467.319855 320.002472,492.148987 
	C320.006378,504.085052 328.307556,510.349182 339.593475,505.932892 
	C353.888458,500.339203 368.052734,494.274658 381.809723,487.475098 
	C401.915070,477.537720 419.376770,463.623810 435.259705,447.969849 
	C444.564087,438.799591 453.231873,428.790527 460.949799,418.253326 
	C470.156677,405.683289 479.155609,392.710876 486.188660,378.868164 
	C493.406372,364.662048 498.959290,349.448944 503.700775,334.197784 
	C507.366394,322.407043 508.673462,309.880737 510.989319,297.673920 
	C511.725220,293.795044 512.333374,289.891998 513.000000,286.000000 
z"/>
<path fill="#000000" opacity="1.000000" stroke="none" 
	d="
M513.000000,285.531342 
	C512.333374,289.891998 511.725220,293.795044 510.989319,297.673920 
	C508.673462,309.880737 507.366394,322.407043 503.700775,334.197784 
	C498.959290,349.448944 493.406372,364.662048 486.188660,378.868164 
	C479.155609,392.710876 470.156677,405.683289 460.949799,418.253326 
	C453.231873,428.790527 444.564087,438.799591 435.259705,447.969849 
	C419.376770,463.623810 401.915070,477.537720 381.809723,487.475098 
	C368.052734,494.274658 353.888458,500.339203 339.593475,505.932892 
	C328.307556,510.349182 320.006378,504.085052 320.002472,492.148987 
	C319.994324,467.319855 320.321533,442.485046 319.882324,417.663666 
	C319.608276,402.175873 314.810150,388.078857 302.761475,376.175049 
	C306.699615,375.385254 310.107208,374.415894 313.578156,374.053619 
	C332.058838,372.124847 349.437134,366.883270 365.869873,358.085388 
	C382.660614,349.095825 396.356293,337.019379 404.911713,319.902618 
	C411.922241,305.876709 416.597137,290.989044 417.976471,275.249481 
	C418.778687,266.095520 420.112579,256.897095 419.844543,247.758652 
	C419.204376,225.931213 413.326935,205.592224 398.923950,188.642090 
	C394.495514,183.430496 393.739807,178.801468 395.938934,172.517578 
	C400.018860,160.859283 399.960388,148.810303 397.352539,136.795959 
	C396.195648,131.466370 395.016785,126.115891 393.381317,120.921822 
	C390.859344,112.912544 387.789429,111.320435 379.755798,113.091896 
	C362.290192,116.943153 346.038818,124.006218 331.553528,134.206055 
	C322.997925,140.230484 315.269897,139.120316 306.326538,136.908844 
	C298.178192,134.893967 289.713348,134.064575 281.346771,133.054230 
	C273.713287,132.132416 266.033417,131.297852 258.357391,131.112000 
	C251.290085,130.940903 244.161835,131.334488 237.130936,132.114670 
	C228.598770,133.061432 220.134720,134.638702 211.653107,136.016525 
	C208.152069,136.585281 204.336792,136.645737 201.268753,138.160995 
	C194.599411,141.454910 189.759552,138.349884 184.447327,135.034653 
	C169.412323,125.651688 153.539841,118.073669 136.175186,113.983650 
	C124.508369,111.235680 121.883186,112.593971 119.119209,123.738792 
	C116.405563,134.680634 113.853882,145.766113 115.114433,157.123489 
	C115.875412,163.979828 117.381500,170.822876 119.314255,177.449814 
	C120.248619,180.653549 119.797821,182.481384 117.738235,184.887146 
	C106.307121,198.239563 98.573555,213.471710 96.089432,230.978195 
	C94.894836,239.396912 93.834320,247.983963 94.152229,256.440674 
	C95.206940,284.498047 101.244644,311.326935 118.275078,334.354187 
	C125.294838,343.845764 135.037064,350.748291 145.296600,356.808105 
	C160.772034,365.948669 177.796997,370.389038 195.136841,373.899628 
	C200.190765,374.922791 205.434097,375.010437 211.603821,375.628418 
	C204.175278,383.279266 199.033569,391.096313 196.827118,400.573639 
	C196.319427,402.754395 194.952377,404.961487 195.162918,407.036499 
	C195.618286,411.524170 192.408676,412.288330 189.603073,412.901062 
	C182.210083,414.515656 174.691711,415.546661 167.271820,417.049713 
	C155.117584,419.511780 144.865372,415.308716 135.060623,408.647522 
	C126.233383,402.650452 122.213799,392.962250 115.943436,384.999146 
	C106.699638,373.259888 95.143555,364.909363 79.794876,363.522217 
	C76.243889,363.201263 72.521530,364.776459 68.706047,365.512299 
	C71.662132,373.883789 78.283722,377.391418 84.106400,381.453644 
	C91.731308,386.773193 96.450714,394.314087 100.904640,402.021484 
	C104.267769,407.841309 106.843712,414.122467 109.672340,420.243439 
	C116.669601,435.384918 129.247131,443.317902 144.998520,445.788818 
	C156.153595,447.538696 167.609329,447.624603 178.943253,447.861969 
	C183.742859,447.962494 188.574234,446.546906 193.793793,445.759674 
	C193.871384,447.504791 193.990097,448.951233 193.991547,450.397766 
	C194.005615,464.395416 193.883484,478.394287 194.032608,492.390350 
	C194.183167,506.519409 184.447922,509.281891 174.977310,506.300842 
	C150.151901,498.486633 127.068871,486.733612 106.151573,471.339752 
	C94.303513,462.620239 83.221390,452.625122 72.905769,442.113739 
	C57.754578,426.675110 44.865566,409.328186 34.054871,390.494385 
	C24.759359,374.300293 16.695200,357.524109 11.988718,339.446991 
	C8.341043,325.436554 5.960025,311.096985 2.978385,296.911591 
	C2.716278,295.664581 2.174984,294.476288 1.381680,293.130371 
	C1.000000,273.312439 1.000000,253.624878 1.378948,233.341522 
	C3.163933,225.464600 4.648145,218.197525 5.962434,210.899857 
	C11.565734,179.787262 23.874264,151.346130 40.750206,124.843132 
	C54.486687,103.270531 71.250961,84.279381 90.753693,67.633278 
	C106.209030,54.441730 123.004303,43.329594 140.996765,34.079983 
	C159.451080,24.592932 178.837982,17.246370 199.203262,13.165333 
	C213.026901,10.395187 227.074081,7.965514 241.116669,7.246647 
	C261.645081,6.195757 282.150543,7.206471 302.593658,10.796751 
	C326.233276,14.948417 348.665802,22.282810 370.150024,32.678246 
	C390.596649,42.571617 409.524475,55.021496 426.390717,70.161453 
	C442.069031,84.235077 456.298676,99.735664 468.184235,117.369545 
	C480.016571,134.924423 490.206848,153.265259 497.488953,173.100861 
	C504.105011,191.122284 509.183075,209.595108 511.040924,228.824646 
	C511.435486,232.908081 512.333801,236.942825 513.000000,241.000000 
	C513.000000,255.687561 513.000000,270.375122 513.000000,285.531342 
z"/>
<path fill="#FFFFFF" opacity="1.000000" stroke="none" 
	d="
M513.000000,240.531342 
	C512.333801,236.942825 511.435486,232.908081 511.040924,228.824646 
	C509.183075,209.595108 504.105011,191.122284 497.488953,173.100861 
	C490.206848,153.265259 480.016571,134.924423 468.184235,117.369545 
	C456.298676,99.735664 442.069031,84.235077 426.390717,70.161453 
	C409.524475,55.021496 390.596649,42.571617 370.150024,32.678246 
	C348.665802,22.282810 326.233276,14.948417 302.593658,10.796751 
	C282.150543,7.206471 261.645081,6.195757 241.116669,7.246647 
	C227.074081,7.965514 213.026901,10.395187 199.203262,13.165333 
	C178.837982,17.246370 159.451080,24.592932 140.996765,34.079983 
	C123.004303,43.329594 106.209030,54.441730 90.753693,67.633278 
	C71.250961,84.279381 54.486687,103.270531 40.750206,124.843132 
	C23.874264,151.346130 11.565734,179.787262 5.962434,210.899857 
	C4.648145,218.197525 3.163933,225.464600 1.378948,232.872864 
	C1.000000,155.701035 1.000000,78.402077 1.000000,1.051559 
	C171.556427,1.051559 342.112854,1.051559 513.000000,1.051559 
	C513.000000,80.687256 513.000000,160.374969 513.000000,240.531342 
z"/>
</svg>