<svg version="1.1" id="Layer_1" xmlns="http://www.w3.org/2000/svg" xmlns:xlink="http://www.w3.org/1999/xlink" x="0px" y="0px"
	 width="100%" viewBox="0 0 896 496" enable-background="new 0 0 896 496" xml:space="preserve">
<path fill="#000000" opacity="1.000000" stroke="none" 
	d="
M462.742554,63.758598 
	C477.746948,46.797695 484.332550,27.836256 477.765411,5.022632 
	C481.830231,5.885475 482.538483,8.303050 483.599823,10.182001 
	C493.463379,27.643827 490.837402,44.739754 481.763916,61.504498 
	C473.215027,77.300064 460.689209,89.671219 447.162292,101.162445 
	C438.671448,108.375458 429.671844,115.031197 422.697876,123.905991 
	C414.553497,134.270325 409.767029,145.528366 412.308472,159.045486 
	C413.721313,166.559814 417.194702,173.167160 421.250885,179.459595 
	C426.932220,188.273163 432.959290,196.863220 438.725464,205.623291 
	C439.952209,207.486984 441.553192,209.361603 441.143890,211.887939 
	C439.736084,212.961365 438.759827,211.922226 438.021576,211.209869 
	C424.125641,197.801117 409.601807,184.936508 399.047394,168.506516 
	C394.520294,161.459167 391.304047,153.917999 390.622467,145.305801 
	C389.695648,133.595200 395.236359,124.891228 402.538666,116.737762 
	C413.505707,104.492317 426.699799,94.821770 439.516846,84.732819 
	C447.650146,78.330673 455.384308,71.530518 462.742554,63.758598 
z"/>
<path fill="#000000" opacity="1.000000" stroke="none" 
	d="
M424.001892,354.846619 
	C445.780884,354.110626 467.114990,354.069550 488.326202,352.434418 
	C507.498383,350.956482 526.690430,348.671021 545.335449,343.458588 
	C547.873047,342.749207 550.360840,341.661194 552.674133,340.389343 
	C558.161072,337.372620 558.934387,335.544250 557.732605,329.754486 
	C563.579712,330.279175 566.116699,335.363190 562.928528,340.100037 
	C560.888000,343.131775 557.832947,344.835480 554.725586,346.440033 
	C541.564819,353.235992 527.263611,356.374023 512.885071,359.075256 
	C484.535370,364.401215 455.832428,366.439606 427.057007,366.822327 
	C405.434265,367.109955 383.764038,366.018738 362.276550,363.777100 
	C345.489624,362.025848 328.497894,360.949890 312.083405,356.377167 
	C311.764648,356.288391 311.414978,356.305023 311.101196,356.205048 
	C306.780029,354.828064 301.916321,353.577179 300.609192,348.715027 
	C299.332886,343.967285 303.889862,341.873779 306.865082,339.458435 
	C316.603516,331.552460 328.488190,328.799469 340.296539,325.884430 
	C345.377991,324.630005 350.514313,324.573883 355.677979,324.763062 
	C357.703644,324.837280 359.650970,325.220734 361.024017,328.117432 
	C356.513977,328.841156 352.226044,329.369812 348.009399,330.242767 
	C341.481232,331.594208 335.137299,333.564453 329.377777,337.049316 
	C327.817505,337.993378 326.091980,338.981201 326.304291,341.198151 
	C326.496765,343.208313 328.268829,343.757782 329.781891,344.384644 
	C339.701233,348.494171 350.222809,350.134766 360.750946,351.514404 
	C381.572083,354.242767 402.560455,354.199829 424.001892,354.846619 
z"/>
<path fill="#000000" opacity="1.000000" stroke="none" 
	d="
M449.182617,125.267906 
	C463.079254,107.260094 482.386292,97.949043 502.352875,89.694427 
	C508.032135,87.346497 513.915588,85.486893 519.731812,83.479828 
	C521.200012,82.973190 522.785950,81.948166 524.536499,83.738861 
	C523.378662,85.940170 521.047058,86.620651 519.138062,87.732956 
	C504.301056,96.377678 489.901764,105.642494 477.258179,117.369942 
	C474.826813,119.625137 472.483307,122.050362 470.494751,124.694565 
	C462.322479,135.561264 461.990967,145.082977 469.468567,157.020172 
	C472.379974,161.668015 475.805084,165.992722 478.965454,170.486237 
	C487.589844,182.748764 487.453003,194.310791 478.530914,206.412888 
	C472.430603,214.687408 464.622406,220.876709 455.682465,225.878433 
	C454.083160,223.432755 455.773010,222.575897 456.676453,221.596451 
	C466.445251,211.006134 467.387360,197.912399 458.387390,187.383804 
	C453.981110,182.229141 449.968597,176.682892 446.674713,170.638123 
	C438.195068,155.076614 438.749146,140.102127 449.182617,125.267906 
z"/>
<path fill="#000000" opacity="1.000000" stroke="none" 
	d="
M356.586975,219.360382 
	C368.223450,216.427902 379.353424,212.885406 391.114594,212.787277 
	C392.804932,212.773193 394.798279,212.106674 396.623413,214.627609 
	C383.725830,218.839050 370.031158,220.567627 358.892242,229.409286 
	C362.526428,233.828491 367.023560,234.114349 371.126617,234.641373 
	C395.015350,237.709763 418.939056,237.157639 442.903992,235.269241 
	C456.165436,234.224258 469.455444,233.783981 482.690948,232.119492 
	C494.732117,230.605194 506.758118,229.108566 518.688477,226.878387 
	C519.297974,226.764465 519.957275,226.917053 520.776245,226.953735 
	C520.915771,229.073120 519.306274,229.405533 518.158447,230.144394 
	C505.074249,238.566849 490.242981,241.181137 475.204865,243.291153 
	C456.070282,245.975967 436.801758,247.183929 417.543365,247.775620 
	C392.569611,248.542877 367.656219,246.991302 343.075928,242.049973 
	C340.349518,241.501892 337.696991,240.260071 335.197723,238.975235 
	C329.670502,236.133743 329.473083,232.358963 334.760040,228.908035 
	C340.369263,225.246780 346.748077,223.167374 352.943848,220.740723 
	C354.028717,220.315811 355.127380,219.926193 356.586975,219.360382 
z"/>
<path fill="#000000" opacity="1.000000" stroke="none" 
	d="
M465.718811,307.541534 
	C479.495667,302.182007 489.508026,310.666595 500.678101,315.430603 
	C499.170288,318.926697 495.906769,319.135742 493.503510,319.931274 
	C467.484375,328.543793 440.937622,332.606964 413.480682,328.898071 
	C402.226349,327.377777 391.155701,325.490601 380.884613,320.333435 
	C378.321259,319.046417 375.956146,317.530609 374.171417,315.295624 
	C372.016083,312.596527 371.449066,309.664154 373.393463,306.531464 
	C375.669495,302.864502 384.338593,298.443024 389.133453,298.547272 
	C387.737457,305.488373 387.815277,306.033539 395.370178,307.448425 
	C409.459167,310.086975 423.744507,310.739014 438.049042,310.226776 
	C447.168274,309.900208 456.322418,309.623749 465.718811,307.541534 
z"/>
<path fill="#000000" opacity="1.000000" stroke="none" 
	d="
M365.076904,276.951355 
	C359.469940,271.486755 359.537048,268.184662 365.207672,263.705963 
	C369.673401,260.178894 374.855591,258.135651 379.989716,256.439758 
	C381.139221,257.675354 380.489716,258.368958 380.096008,259.046478 
	C376.373901,265.452057 377.129211,267.519897 384.530609,269.276611 
	C397.611694,272.381409 411.003723,271.793762 424.298035,272.054260 
	C444.971832,272.459381 465.473175,270.733643 485.690460,266.203278 
	C489.270752,265.401001 492.667023,265.466064 495.470886,268.233612 
	C498.734344,271.454742 503.795990,272.180756 507.064972,276.365875 
	C495.833405,280.607300 484.522491,282.272614 473.303802,284.176788 
	C458.369904,286.711578 443.283905,288.028717 428.136597,287.961121 
	C410.480225,287.882385 392.848480,287.204437 375.767670,281.939362 
	C372.093475,280.806793 368.502441,279.498993 365.076904,276.951355 
z"/>
<path fill="#000000" opacity="1.000000" stroke="none" 
	d="
M538.133667,419.326752 
	C540.174255,435.993683 538.662903,452.311615 538.971069,468.601898 
	C539.007629,470.537842 538.019531,471.907043 536.005859,471.866455 
	C532.969299,471.805298 529.564453,472.865967 527.299438,469.732819 
	C526.744019,468.964508 526.494080,467.975311 526.078491,467.030365 
	C523.334412,467.306641 521.408447,469.035126 519.212952,470.106384 
	C514.299744,472.503723 509.190186,473.681183 503.736359,472.924774 
	C495.319702,471.757477 489.623718,467.136810 488.083374,460.319000 
	C486.102631,451.551941 488.930298,443.199463 495.578949,438.534668 
	C500.309723,435.215485 505.647339,433.443604 511.370972,432.852814 
	C513.188782,432.665192 515.079468,432.930969 516.846619,432.559875 
	C519.870300,431.924774 524.414001,433.809265 524.673157,428.126709 
	C524.949524,422.067200 522.154541,417.922211 516.763550,417.261963 
	C510.605286,416.507782 504.467194,416.880493 498.470734,418.689270 
	C495.719055,419.519287 493.038422,420.643158 491.884033,416.311493 
	C490.883667,412.557800 491.600647,410.500702 495.561005,409.230743 
	C505.012848,406.199890 514.435791,403.906830 524.394348,406.544983 
	C531.108643,408.323730 536.238281,411.764954 538.133667,419.326752 
M516.241455,461.000519 
	C519.751953,459.099640 524.343384,458.482239 524.692261,453.062195 
	C525.402100,442.034760 524.009583,440.672424 513.059082,442.454956 
	C511.109802,442.772278 509.159271,443.335266 507.330322,444.081421 
	C504.330841,445.305145 502.679260,447.647156 502.271423,450.913422 
	C501.226929,459.278839 506.219971,463.215790 516.241455,461.000519 
z"/>
<path fill="#000000" opacity="1.000000" stroke="none" 
	d="
M368.687683,456.715576 
	C367.691956,442.654968 377.666199,434.906189 392.062561,432.869446 
	C394.031769,432.590820 396.097443,432.920532 398.041870,432.557983 
	C400.841034,432.036041 404.875183,433.692291 405.621918,428.970184 
	C406.434662,423.830505 403.426483,418.612213 398.878693,417.580658 
	C393.948456,416.462341 388.933960,416.882935 383.971863,417.631226 
	C382.330078,417.878784 380.695862,418.259521 379.103210,418.731293 
	C376.443085,419.519287 373.921509,420.479950 372.921692,416.461639 
	C372.053467,412.972137 372.199249,410.562042 376.370300,409.229980 
	C385.500885,406.314056 394.605988,404.152466 404.248016,406.251740 
	C414.592407,408.503906 420.124146,415.008362 420.202209,425.582397 
	C420.301849,439.076294 420.227173,452.571686 420.174835,466.066223 
	C420.166138,468.307800 420.778259,471.290131 417.546021,471.685333 
	C414.424133,472.066956 410.496460,473.418854 408.499329,469.761566 
	C406.753632,466.564697 405.118958,467.541626 402.902191,468.746582 
	C397.399353,471.737610 391.625824,473.737091 385.214630,472.986847 
	C375.547546,471.855652 370.798523,467.296204 368.687683,456.715576 
M383.599152,456.515900 
	C385.165863,460.687836 388.587708,462.627441 392.605957,462.210754 
	C397.597778,461.693176 403.005554,460.114960 405.173767,455.272217 
	C406.781525,451.681305 406.931488,446.693207 404.981323,443.135193 
	C403.251740,439.979675 399.151611,442.576050 396.126740,442.272461 
	C395.323578,442.191864 394.478943,442.454559 393.660950,442.601776 
	C384.608124,444.231323 382.763428,446.600128 383.599152,456.515900 
z"/>
<path fill="#000000" opacity="1.000000" stroke="none" 
	d="
M440.713135,454.139923 
	C436.271790,439.770996 432.041107,425.755798 427.539673,411.828094 
	C426.203369,407.693542 427.253174,406.344604 431.482452,406.575043 
	C442.229828,407.160522 440.893982,404.633972 444.494293,415.847382 
	C448.052948,426.931091 451.870636,437.923279 454.531982,449.273956 
	C454.783691,450.347504 454.993683,451.602356 456.371552,452.077454 
	C458.150543,451.260010 458.196045,449.427338 458.679077,447.927948 
	C462.508514,436.041962 465.753418,423.986786 467.462952,411.613281 
	C467.999512,407.729889 469.414551,406.555206 473.139557,406.658295 
	C482.974213,406.930420 483.634216,405.413147 481.416870,416.310608 
	C477.786713,434.151550 472.352142,451.389587 464.993378,468.039886 
	C463.839478,470.650757 462.069641,471.812317 459.290680,472.070068 
	C446.977478,473.211914 445.944092,472.533203 442.712494,460.729980 
	C442.141876,458.645905 441.453979,456.593933 440.713135,454.139923 
z"/>
<path fill="#000000" opacity="1.000000" stroke="none" 
	d="
M492.016846,373.911072 
	C512.067505,371.246277 531.693542,368.748810 550.692322,362.859497 
	C560.751282,359.741425 570.671143,356.407196 578.804993,349.311249 
	C579.251831,348.921448 579.946777,348.816162 581.175720,348.311981 
	C581.162170,354.390686 577.765991,357.968628 573.931641,361.068085 
	C563.950928,369.135803 551.964966,372.712891 539.762146,375.539032 
	C513.078491,381.718872 485.979370,384.279907 458.621887,384.318878 
	C444.125488,384.339539 429.613861,384.707550 415.136353,384.176758 
	C396.506775,383.493744 377.978485,381.447235 359.824402,376.951233 
	C357.135345,376.285278 353.857178,376.072510 352.295502,372.676971 
	C354.796082,370.884125 357.032288,372.507355 359.120697,372.838379 
	C378.246735,375.869904 397.571106,375.982300 416.832733,377.085297 
	C435.514374,378.155060 454.092560,376.088928 472.722595,375.668610 
	C479.018066,375.526581 485.295258,374.572266 492.016846,373.911072 
z"/>
<path fill="#000000" opacity="1.000000" stroke="none" 
	d="
M345.034424,405.000366 
	C345.027252,399.344391 345.100708,394.186615 344.990601,389.032776 
	C344.913635,385.430573 346.501587,384.095703 350.085052,383.971832 
	C360.265808,383.620056 359.648285,383.550018 360.407074,393.645050 
	C361.780792,411.921387 359.110107,430.183197 360.863739,448.441986 
	C361.613953,456.253296 360.423798,464.075012 359.180237,471.770020 
	C357.474426,482.325348 351.048920,489.544006 341.247925,493.344635 
	C335.361267,495.627350 335.025696,489.086761 331.983246,487.161652 
	C332.254669,486.344666 332.258911,486.102356 332.366425,486.040955 
	C344.304474,479.223816 345.400482,468.012573 345.142975,455.871704 
	C344.787018,439.088013 345.042847,422.291351 345.034424,405.000366 
z"/>
<path fill="#000000" opacity="1.000000" stroke="none" 
	d="
M581.163208,240.504272 
	C577.490967,255.705063 567.164978,264.707672 554.605835,271.791687 
	C544.848633,277.295227 534.516968,281.395508 523.744629,284.417969 
	C522.612793,284.735535 521.476196,285.076172 520.265320,283.795868 
	C520.561584,281.537170 522.778076,281.150055 524.363831,280.254486 
	C536.002625,273.681671 547.482910,266.852173 555.975037,256.219025 
	C562.029724,248.637909 566.851562,240.600754 562.961853,230.176590 
	C559.020142,219.613266 547.555969,213.345612 536.440247,215.943024 
	C532.383911,216.890869 532.383911,216.890839 529.856873,216.379501 
	C533.289795,210.185211 547.104126,207.011963 558.538696,210.249435 
	C572.278381,214.139526 583.062378,225.227127 581.163208,240.504272 
z"/>
<path fill="#000000" opacity="1.000000" stroke="none" 
	d="
M549.736694,411.825989 
	C546.648926,414.799164 544.015930,410.048920 541.122437,411.846069 
	C540.623291,410.455048 539.918884,409.128754 540.431763,407.606354 
	C546.862366,406.165649 550.019226,407.496246 549.736694,411.825989 
z"/>
</svg>